<mxfile host="app.diagrams.net" modified="2024-03-09T09:20:45.157Z" agent="Mozilla/5.0 (Windows NT 10.0; Win64; x64) AppleWebKit/537.36 (KHTML, like Gecko) Chrome/122.0.0.0 Safari/537.36" version="24.0.3" etag="YqJeyuOvvK4bom-w6sn6" type="github">
  <diagram name="Page-1" id="bG_UZIxg3W2Cqj-h1_MG">
    <mxGraphModel>
      <root>
        <mxCell id="0" />
        <mxCell id="1" parent="0" />
      </root>
    </mxGraphModel>
  </diagram>
</mxfile>
